<svg width="486" height="317" viewBox="0 0 486 317" fill="none" xmlns="http://www.w3.org/2000/svg"><path d="M186.358 41.464C187.948 41.464 189.558 40.047 193.035 36.058C197.703 30.704 200.986 24.609 200.986 18.884C200.986 9.02601 192.082 0.122009 183.813 0.122009C182.542 0.122009 180.633 1.712 179.044 6.163C177.453 10.934 174.703 18.704 174.591 23.654C174.51 27.209 174.909 30.333 176.817 32.878C179.679 36.376 183.813 41.464 186.358 41.464Z" fill="#F47F61"></path><path d="M485.402 209.162C485.599 207.641 483.617 207.607 481.797 207.786C479.58 208.004 478.297 208.104 471.301 209.694C465.895 210.966 456.99 213.511 446.496 217.645C431.23 223.687 426.461 226.867 422.326 226.867C417.556 226.867 423.599 210.648 425.189 204.925C428.05 194.431 430.277 187.433 432.822 179.803C435.047 173.441 436.955 168.353 431.23 168.353C425.824 168.353 417.556 175.986 413.421 175.986C411.831 175.986 409.286 172.487 404.835 169.306C398.474 164.855 394.657 161.357 387.98 161.357C380.666 161.357 377.168 162.947 368.9 174.077C360.416 185.389 357.289 190.897 354.226 197.219C346.525 204.165 337.335 211.365 330.419 218.282C321.515 227.186 316.743 231.639 314.835 231.639C311.974 231.639 317.698 218.6 320.241 211.921C324.057 201.744 329.147 189.341 331.053 186.161C332.701 179.371 322.729 172.183 318.701 172.038C314.676 171.892 312.291 174.076 310.701 176.62C309.111 179.165 286.849 209.694 275.082 225.597C270.631 231.639 266.814 237.681 264.906 237.681C262.998 237.681 265.859 226.868 267.449 221.78C269.676 214.784 275.4 194.113 275.4 190.615C275.4 184.89 269.675 180.437 267.449 179.166C265.543 178.213 261.701 176.706 259.016 180.301C253.6 187.552 241.298 201.743 236.919 205.879C231.194 211.286 227.062 215.738 226.107 215.738C223.246 215.738 228.651 203.972 229.923 200.472C231.831 195.701 232.786 191.887 232.468 188.705C232.148 185.207 229.034 181.038 224.198 177.575C221.7 176.038 218.366 176.667 214.866 180.852C211.367 185.038 198.55 200.362 188.897 210.013C183.811 215.1 181.584 217.008 180.313 217.008C179.041 217.008 181.584 211.92 182.855 209.694C184.765 206.514 189.216 196.02 190.808 192.521C192.398 188.705 192.884 186.221 192.247 183.678C191.606 181.544 189.675 176.827 186.204 176.146C179.997 174.928 159.88 175.534 151.294 175.534C140.799 175.534 111.86 178.397 104.545 181.895C102.637 182.848 101.365 185.392 101.365 188.254C101.365 190.798 101.683 200.021 104.228 203.519C105.181 204.791 106.135 205.428 107.726 205.428C109.951 205.428 111.86 203.837 116.63 201.612C131.576 194.615 158.609 188.573 172.919 188.573C168.467 201.294 131.799 278.571 126.25 290.471C120.7 302.371 124.52 309.888 127.7 313.704C131.243 318.071 135.79 316.229 137.697 311.777C141.833 302.236 163.774 258.986 167.91 251.353C172.043 243.721 172.361 242.767 178.086 236.725C183.493 231 191.761 222.732 196.214 218.28C199.075 215.418 201.62 212.874 202.573 212.874C202.891 212.874 205.118 214.464 203.844 217.645C200.346 226.231 194.836 241.58 186.91 259.282C178.984 276.984 195.65 286.318 198.994 279.954C204.658 269.176 216.879 248.713 222.289 240.542C227.699 232.371 247.096 209.694 251.547 204.606C253.137 202.698 255.045 200.154 256.318 200.154C257.271 200.154 256.953 201.744 255.045 206.196C251.547 214.146 243.914 235.772 240.416 244.676C236.918 253.58 234.088 261.406 233.135 263.951C228.323 277.702 243.748 290.058 249.035 282.714C254.322 275.37 266.176 257.714 274.762 245.312C283.35 232.591 291.299 222.733 293.844 219.235C295.434 217.008 297.024 214.783 297.66 214.783C298.613 214.783 298.613 216.373 297.023 221.143C293.207 232.591 288.041 246.856 285.908 255.678C282.441 268.831 296.627 281.263 304.035 272.214C311.441 263.165 336.211 228.057 338.365 225.596C339.435 224.259 343.422 219.108 343.724 219.949C342.408 223.203 338.849 238.977 338.533 241.204C336.033 260.704 351.289 268.37 357.533 264.454C365.533 259.704 389.566 226.231 394.972 218.6C397.517 215.101 399.107 214.147 399.743 214.147C400.378 214.147 400.061 216.056 399.743 218.918C399.106 224.324 397.341 231.496 396.56 240.226C395.782 248.955 400.532 258.705 408.965 258.353C414.688 258.353 417.551 250.084 446.809 232.275C458.258 225.279 469.071 218.919 481.791 216.375C483.381 216.058 484.652 216.049 484.918 214.48C485.139 213.222 485.402 209.162 485.402 209.162ZM407.379 183.617C407.063 186.161 404.199 193.158 398.475 199.517C390.526 208.104 378.758 222.733 372.717 230.047C370.172 233.227 366.674 237.997 362.858 237.997C361.268 237.997 360.631 236.089 361.905 231.638C363.495 226.549 365.085 217.326 374.626 201.425C381.938 189.023 390.208 180.754 391.798 179.164C393.388 177.574 394.343 176.938 397.523 176.938C400.066 176.939 408.016 179.483 407.379 183.617Z" fill="#F47F61"></path><path d="M328.193 127.964C326.603 132.735 324.377 142.593 323.74 145.455C323.105 148.953 324.058 152.133 325.967 154.678C328.83 158.176 332.963 163.265 335.508 163.265C337.098 163.265 339.324 162.31 342.186 157.859C345.047 153.088 350.137 146.41 350.137 140.685C350.137 130.827 341.233 121.922 332.963 121.922C331.691 121.922 329.783 123.512 328.193 127.964Z" fill="#F47F61"></path><path d="M136.112 73.583C142.154 71.356 150.422 68.813 156.146 68.813C158.69 68.813 159.644 68.813 158.371 71.674C157.1 74.854 152.011 88.848 147.878 102.522C144.38 113.653 139.047 131.68 138.41 135.497C136.444 150.349 148.11 163.682 153.039 155.215C157.777 149.349 171.261 130.996 185.037 112.371C188.854 107.6 193.354 101.25 197.17 97.434C197.807 96.797 198.124 96.479 198.442 96.479C198.759 96.479 198.442 97.434 198.124 98.07L193.035 110.791C191.446 114.606 189.855 120.968 189.537 123.194C185.037 141.038 201.424 150.699 210.369 144.372C217.037 139.704 222.369 131.371 227.698 124.784C235.543 115.091 240.739 107.293 246.463 100.296C249.008 97.116 250.279 95.845 250.916 95.845C251.551 95.845 251.232 97.752 250.916 100.616C250.279 106.021 248.529 113.478 248.053 121.923C247.37 134.039 251.37 139.706 259.821 139.096C265.546 139.096 269.044 130.51 296.71 113.336C306.888 106.977 317.382 101.569 329.783 99.025C331.055 98.707 331.716 98.052 332.085 97.173C332.615 95.907 332.882 93.282 332.647 91.71C332.506 90.767 331.74 90.439 330.881 90.423C328.654 90.383 326.285 90.756 319.608 92.347C314.202 93.619 305.614 95.845 296.393 99.343C281.127 105.068 276.992 108.247 272.858 108.247C268.407 108.247 274.131 92.664 275.721 86.94C278.582 76.762 280.49 70.085 283.035 62.454C284.943 56.41 287.17 51.322 281.764 51.322C276.358 51.322 269.996 58 265.861 58C264.271 58 260.136 54.502 255.049 51.322C247.416 46.551 246.145 44.643 239.149 44.643C234.379 44.643 229.29 46.233 223.883 52.276C219.114 57.682 210.846 69.766 205.119 79.625C196.217 86.304 183.812 96.479 175.864 104.113C169.822 109.837 167.912 111.746 166.958 111.746C165.051 111.746 166.005 108.565 166.958 106.02C168.231 102.204 177.771 77.717 179.043 74.219C180.315 70.721 181.037 62.703 177.452 57.682C173.537 53.203 154.239 51.322 140.244 51.322C127.843 51.322 121.846 52.409 118.302 53.548C114.704 54.704 117.031 63.726 117.665 66.905C118.302 69.449 118.934 73.114 123.704 74.704C116.39 91.241 112.26 101.25 103.355 115.879C89.363 139.095 84.593 145.455 79.504 145.455C76.006 145.455 76.959 139.095 79.504 128.918C84.593 108.884 95.997 69.628 97.704 63.371C99.704 56.038 100.638 50.945 92.37 49.038C89.508 48.402 65.247 49.934 55.334 51.261C29.172 54.761 13.654 57.038 4.43099 60.218C0.614988 61.49 0.61499 63.4 0.29599 65.944C-0.0210104 68.806 0.932989 77.074 3.15899 81.526C3.79499 82.798 4.74899 83.435 6.02099 83.754C8.24799 84.39 11.109 82.482 16.198 80.572C28.919 75.802 54.042 67.217 75.667 66.261C71.851 77.392 67.446 95.13 64.24 107.612C57.537 133.705 57.372 141.383 57.372 150.383C57.372 169.729 69.705 177.05 75.372 172.717C80.368 168.897 84.579 164.564 87.539 160.716C92.539 154.216 105.263 140.686 121.163 108.567C127.843 94.89 131.976 85.032 136.112 73.583ZM214.344 113.017C215.934 107.929 217.205 99.025 226.428 83.761C233.74 71.675 242.01 62.771 243.602 61.181C244.873 59.909 246.145 59.273 249.008 59.273C251.551 59.273 259.502 61.499 258.864 65.634C258.547 68.177 255.366 75.491 249.642 81.851C242.009 90.122 230.562 104.748 224.837 111.747C222.292 114.926 218.794 118.743 215.933 118.743C213.707 118.742 213.071 117.47 214.344 113.017Z" fill="#F47F61"></path></svg>