<svg width="606" height="534" viewBox="0 0 606 534" fill="none" xmlns="http://www.w3.org/2000/svg">
<path d="M485.034 6.35019L509.556 40.322C510.291 41.3399 510.029 42.7651 508.981 43.4552L492.206 54.4935C497.43 64.3368 495.183 72.443 493.407 75.2657C472.075 93.242 425.962 126.329 411.773 139.751C397.584 153.173 381.074 158.996 373.325 160.593C361.58 164.189 355.588 160.354 350.794 158.916C346.326 157.575 339.849 151.166 335.934 147.65C335.135 148.689 332.53 151.198 328.504 152.924C324.477 154.649 320.754 150.926 319.396 148.849C311.007 133.669 294.229 102.829 294.229 100.912C294.229 98.5151 294.708 78.6213 296.625 74.7863C298.159 71.7184 300.46 68.8741 301.419 67.8355L360.621 29.0066L463.682 1.98628C463.843 1.94421 464.01 1.93888 464.173 1.97069L484.351 5.91335C484.626 5.96704 484.87 6.12321 485.034 6.35019Z" fill="#CCFBF1"/>
<path d="M360.621 29.0066L463.682 1.98628C463.843 1.94421 464.01 1.93888 464.173 1.97069L484.351 5.91335C484.626 5.96704 484.87 6.12321 485.034 6.35019L509.556 40.322C510.291 41.3399 510.029 42.7651 508.981 43.4552L492.206 54.4935M360.621 29.0066L301.419 67.8355C300.46 68.8741 298.159 71.7184 296.625 74.7863C294.708 78.6213 294.229 98.5151 294.229 100.912C294.229 102.829 311.007 133.669 319.396 148.849C320.754 150.926 324.477 154.649 328.504 152.924C332.53 151.198 335.135 148.689 335.934 147.65M360.621 29.0066L386.14 35.2444M335.934 147.65C339.849 151.166 346.326 157.575 350.794 158.916C355.588 160.354 361.58 164.189 373.325 160.593C381.074 158.996 397.584 153.173 411.773 139.751M335.934 147.65C328.499 141.179 318.169 118.489 313.934 107.953C313.643 106.905 313.06 101.699 313.06 89.2591C313.06 73.7097 321.272 67.8355 327.212 61.8293C333.152 55.8231 350.973 46.1052 367.396 42.0868M411.773 139.751C425.962 126.329 472.075 93.242 493.407 75.2657C495.183 72.443 497.43 64.3368 492.206 54.4935M411.773 139.751C418.231 130.445 430.292 113.369 404.435 73.0109C398.553 61.2469 380.534 38.8721 367.396 42.0868M492.206 54.4935L430.431 95.1437C428.839 96.1918 426.692 95.6802 425.743 94.0264L392.979 36.9162L386.14 35.2444M367.396 42.0868L386.14 35.2444" stroke="#0C0A09" stroke-width="3.30818" stroke-linecap="round"/>
<path d="M350.794 158.916C346.326 157.575 339.849 151.166 335.934 147.651C328.499 141.179 318.169 118.489 313.934 107.953C313.643 106.905 313.061 101.699 313.061 89.2592C313.061 73.7098 321.272 67.8356 327.212 61.8294C333.152 55.8232 350.973 46.1053 367.396 42.0869C380.534 38.8722 398.553 61.247 404.435 73.011C430.192 113.213 418.324 130.312 411.848 139.642L411.773 139.751C397.584 153.173 381.075 158.996 373.325 160.594C361.58 164.189 355.588 160.354 350.794 158.916Z" fill="#FAFAFA" stroke="#0C0A09" stroke-width="3.30818" stroke-linecap="round"/>
<path d="M392.979 36.9159L425.743 94.0262C426.692 95.68 428.839 96.1916 430.431 95.1435L492.206 54.4932C497.43 64.3366 495.183 72.4428 493.407 75.2655C472.075 93.2418 425.962 126.328 411.773 139.751L411.848 139.642C418.324 130.312 430.192 113.213 404.435 73.0106C398.553 61.2467 380.534 38.8719 367.396 42.0866L386.14 35.2441L392.979 36.9159Z" fill="#CCFBF1" stroke="#0C0A09" stroke-width="3.30818" stroke-linecap="round"/>
<path d="M301.419 67.8353L360.621 29.0063L386.14 35.2442L367.396 42.0866C350.973 46.105 333.152 55.8229 327.212 61.8291C321.272 67.8353 313.06 73.7095 313.06 89.2589C313.06 101.698 313.643 106.905 313.934 107.953C318.169 118.489 328.499 141.179 335.934 147.65C335.135 148.689 332.53 151.198 328.504 152.923C324.477 154.649 320.754 150.926 319.396 148.849C311.007 133.669 294.229 102.829 294.229 100.912C294.229 98.5149 294.708 78.6211 296.625 74.7861C298.159 71.7181 300.46 68.8739 301.419 67.8353Z" fill="#CCFBF1" stroke="#0C0A09" stroke-width="3.30818" stroke-linecap="round"/>
<path d="M485.034 6.35019L509.556 40.322C510.291 41.3399 510.029 42.7651 508.98 43.4552L492.206 54.4935L430.431 95.1437C428.838 96.1918 426.692 95.6802 425.743 94.0265L392.979 36.9162L386.14 35.2444L360.621 29.0066L463.682 1.98628C463.842 1.94421 464.01 1.93888 464.173 1.97069L484.351 5.91335C484.626 5.96704 484.87 6.12321 485.034 6.35019Z" fill="#0C0A09" stroke="#0C0A09" stroke-width="3.30818" stroke-linecap="round"/>
<path d="M298.236 92.6604L298.683 88.0683C298.852 86.3278 299.165 84.6044 299.619 82.9156L300.561 79.4095M305.086 73.9246C303.536 79.6588 302.319 84.8383 301.723 92.6604M310.324 70.1107C308.387 75.6125 306.14 82.5326 306.14 90.8005M314.741 70.1107L313.215 72.7517C312.971 73.1744 312.757 73.6139 312.575 74.067L311.264 77.3359M310.324 81.7344L308.93 89.4059M308.93 92.6604L300.561 97.0774M303.01 71.3883L309.129 67.4964C311.007 66.3015 312.986 65.2717 315.042 64.4184L320.841 62.0116" stroke="black" stroke-width="1.05402" stroke-linecap="round"/>
<path d="M489.219 71.8569C489.162 72.5981 488.911 74.3711 488.364 75.5339M485.542 74.3366C485.799 75.0492 486.158 76.7138 485.542 77.6715M482.72 76.4744C482.777 77.5005 482.703 79.6896 481.951 80.2369M478.701 78.7832C478.844 79.7524 478.923 81.8788 478.102 82.6313M474.767 82.6313C474.995 83.4009 475.212 85.1282 474.254 85.8808M470.92 84.085C470.92 85.0826 470.92 87.3003 470.92 88.1896M466.644 86.8214C466.843 88.1611 467.123 90.8918 466.644 91.097M461.769 89.5578C461.997 91.4391 462.317 95.2529 461.769 95.4582M457.408 92.2942C457.408 94.147 457.254 98.1262 456.639 99.2207M452.021 95.4582C451.964 97.7955 451.73 102.59 451.252 103.069M447.147 97.596C447.403 99.9903 447.609 105.053 446.377 106.147M442.529 101.188C442.814 104.237 442.922 110.543 441.075 111.364M438.082 104.095C438.396 107.743 437.124 116.922 433.635 121.711M432.695 106.147C433.635 108.627 433.977 116.101 427.821 126.157M427.821 104.095V106.575M427.821 110.936C428.677 115.126 426.197 123.848 422.434 130.347" stroke="black" stroke-width="1.10273" stroke-linecap="round"/>
<path d="M494.587 136.111C494.946 135.99 495.295 135.84 495.631 135.664L588.451 86.8052L588.921 145.88L500.668 154.655C498.589 154.862 496.75 156.091 495.763 157.933C495.093 159.183 494.149 160.266 493.002 161.101L491.232 162.389C490.503 162.919 489.677 163.303 488.802 163.518L484.456 164.585C482.8 164.992 481.065 164.939 479.437 164.432L478.624 164.179C476.779 163.605 475.157 162.476 473.979 160.944L471.981 158.346L470.67 159.355L471.981 158.346C471.647 157.913 471.353 157.452 471.1 156.967L469.024 152.988C468.325 151.65 467.961 150.162 467.961 148.652V144.991H474.338C476.235 144.991 478.108 144.566 479.818 143.746L483.879 141.8C485.108 141.211 486.002 140.096 486.309 138.768C486.6 137.511 486.331 136.256 485.666 135.262C486.567 135.212 487.463 135.445 488.227 135.931C489.739 136.894 491.605 137.119 493.302 136.546L494.587 136.111Z" fill="#CCFBF1" stroke="black" stroke-width="3.30818"/>
<path d="M577.981 101.311C513.512 133.545 501.498 133.425 506.719 142.443M583.447 140.466C537.243 146.647 510.324 151.36 510.673 147.387" stroke="#0C0A09" stroke-width="1.10273" stroke-linecap="round"/>
<path d="M583.034 132.312L579.428 137.204M584.44 123.298L573.248 137.204M583.863 114.746L562.174 139.265M579.428 111.967L573.248 119.167M568.355 124.586L554.448 139.265M544.663 140.81L567.524 115.771M557.492 116.398L535.392 142.613M544.663 123.298L526.893 145.188M535.392 125.478L521.228 145.188M524.003 133.367L514.328 145.188M519.389 133.367L512.84 141.851M514.328 134.706L509.118 141.851M510.309 136.343L508.374 139.265M469.751 152.454C470.29 152.343 472.301 152.13 473.366 151.483M475.506 153.385C474.206 153.909 470.922 154.554 469.057 154.516M476.79 155.383C475.332 156.017 471.882 157.133 469.751 156.524M477.123 158.141C475.918 158.538 472.966 159.159 470.798 158.474M477.694 160.424C476.758 160.741 474.441 161.28 472.652 160.9M479.406 162.66C478.598 162.961 476.457 163.383 474.365 162.66" stroke="#0C0A09" stroke-width="0.882181" stroke-linecap="round"/>
<path d="M588.337 72.2071C588.309 70.0757 590.014 68.325 592.145 68.2968L602.611 68.1583L603.879 163.905L593.412 164.044C591.281 164.072 589.53 162.367 589.502 160.235L588.337 72.2071Z" fill="#0C0A09" stroke="#0C0A09" stroke-width="3.30818"/>
<path d="M491.307 139.72C488.11 143.388 479.546 150.411 470.866 149.154" stroke="#CCFBF1" stroke-width="1.10273" stroke-linecap="round"/>
<path d="M494.766 140.191C495.815 141.764 497.911 145.789 497.911 149.311" stroke="#0C0A09" stroke-width="1.10273" stroke-linecap="round"/>
<path d="M484.06 137.218C484.062 137.223 484.207 137.894 482.857 139.235C481.643 140.441 479.653 141.693 477.154 142.585C474.655 143.477 472.323 143.769 470.619 143.605C468.725 143.422 468.412 142.81 468.41 142.805C468.409 142.8 468.263 142.129 469.614 140.787C470.828 139.582 472.817 138.33 475.316 137.438C477.815 136.545 480.148 136.254 481.851 136.418C483.746 136.601 484.058 137.213 484.06 137.218Z" stroke="black" stroke-width="4.4109"/>
<path d="M466.072 117.317L478.47 135.734C483.222 136.595 482.084 139.713 479.654 141.256C477.266 142.772 472.859 143.628 471.416 142.634C470.13 141.748 470.165 140.388 471.128 138.863L456.563 120.808C455.32 121.851 451.676 124.66 448.017 124.66C444.358 124.66 441.116 119.764 439.952 117.317L448.017 111.26L455.073 105.961L461.604 101.056L469.924 94.8081C471.85 99.7432 472.091 104.678 471.128 109.012C470.357 112.478 467.436 113.184 466.072 113.104V117.317Z" fill="#FAFAFA"/>
<path d="M466.072 117.317L478.47 135.734C483.222 136.595 482.084 139.713 479.654 141.256C477.266 142.772 472.859 143.628 471.416 142.634C470.13 141.748 470.165 140.388 471.128 138.863L456.563 120.808M466.072 117.317V113.104M466.072 117.317C464.099 116.47 459.977 114.072 459.272 111.26M466.072 117.317C464.563 118.395 461.161 120.551 459.624 120.551M466.072 113.104C467.436 113.184 470.357 112.478 471.128 109.012M466.072 113.104C464.402 113.12 461.654 112.683 459.272 111.26M471.128 109.012C472.091 104.678 471.85 99.7432 469.924 94.8081L461.604 101.056M471.128 109.012C468.705 108.612 463.408 106.461 461.604 101.056M456.563 120.808C455.32 121.851 451.676 124.66 448.017 124.66C444.358 124.66 441.116 119.764 439.952 117.317L448.017 111.26M456.563 120.808C454.444 120.087 450.904 118.239 449.109 115.443M461.604 101.056L455.073 105.961M448.017 111.26L455.073 105.961M448.017 111.26C447.875 112.825 448.326 114.224 449.109 115.443M455.073 105.961C455.425 107.157 456.202 108.5 456.88 109.346M459.272 111.26C458.307 110.684 457.629 110.281 456.88 109.346M456.88 109.346L449.109 115.443" stroke="black" stroke-width="1.10273" stroke-linecap="round"/>
<path d="M465.298 98.4003L464.48 101.031M467.051 97.1143L465.59 102.579M467.782 100.271L467.051 103.427M453.137 107.366L455.898 108.173M451.616 108.576L455.185 110.469M449.972 109.786L453.602 111.834M448.358 111.244L451.616 113.292M462.199 112.831L461.88 113.652M463.339 112.831L463.02 114.062M464.48 112.831L464.115 114.473" stroke="#0C0A09" stroke-width="0.551363" stroke-linecap="round"/>
<path d="M472.574 143.872C470.982 143.963 469.428 143.875 468.645 143.115C467.934 142.426 468.348 141.287 468.789 140.401L469.059 139.856C469.113 139.748 469.153 139.634 469.179 139.516L469.277 139.072C469.546 137.846 471.215 137.657 471.751 138.792C471.764 138.82 471.76 138.854 471.741 138.879L471.175 139.591C470.24 140.769 470.869 142.52 472.341 142.833C472.619 142.892 472.906 142.892 473.184 142.833L477.296 141.957C477.944 141.819 478.562 141.567 479.122 141.212L481.815 139.506C482.544 139.045 482.836 138.128 482.51 137.33C482.237 136.661 481.586 136.223 480.863 136.223H478.383C478.216 136.223 478.15 136.016 478.291 135.927C481.298 134.023 486.015 134.139 485.572 137.536C485.324 138.779 485.503 139.823 479.573 142.256C477.351 143.168 474.972 143.734 472.574 143.872Z" fill="black"/>
<path d="M407.056 104.022C407.056 128.965 391.681 149.185 364.251 149.185C341.888 147.614 321.796 128.965 321.796 104.022C321.796 79.0792 336.436 58.3358 359.884 58.3358C386.789 55.7147 407.056 79.0792 407.056 104.022Z" fill="#0C0A09"/>
<path d="M400.078 105.549C400.078 124.68 387.504 140.189 364.303 140.189C344.875 140.189 329.126 124.68 329.126 105.549C329.126 73.3074 347.121 66.4219 366.548 66.4219C385.975 66.4219 400.078 86.4185 400.078 105.549Z" fill="#CCFBF1"/>
<path d="M345.55 105.444C342.786 100.844 344.274 94.8732 348.875 92.1088L368.021 80.6036L368.691 81.7188C371.456 86.3193 369.967 92.2897 365.367 95.0541L346.22 106.559L345.55 105.444Z" fill="#0C0A09"/>
<path d="M346.736 107.418L367.164 95.1425C371.057 92.8034 376.109 94.0628 378.448 97.9556L379.888 100.352L359.46 112.627C355.567 114.967 350.515 113.707 348.176 109.814L346.736 107.418Z" fill="#0C0A09"/>
<path d="M357.548 125.411C354.996 121.164 356.37 115.653 360.616 113.101L380.404 101.211L381.459 102.967C384.011 107.214 382.637 112.725 378.39 115.277L358.603 127.167L357.548 125.411Z" fill="#0C0A09"/>
<path d="M480.086 7.84277C455.102 14.7732 404.645 30.381 396.399 34.5739" stroke="#CCFBF1" stroke-width="1.10273" stroke-linecap="round"/>
<path d="M444.244 239.812L449.36 238.546L448.936 243.8L439.037 366.459L438.819 369.162L436.191 369.831L147.757 443.189L143.775 444.201L143.082 440.152L123.012 322.905L122.417 319.429L125.84 318.582L444.244 239.812Z" fill="#CCFBF1" stroke="black" stroke-width="7.58734"/>
<path d="M439.007 370.385L441.195 369.799L442.749 371.447L501.881 434.153L506.157 438.687L500.165 440.402L216.058 521.765L213.792 522.414L212.207 520.67L150.952 453.297L146.764 448.692L152.777 447.081L439.007 370.385Z" fill="white" stroke="black" stroke-width="7.58734"/>
<path d="M270.034 343.949C267.964 337.646 271.395 330.858 277.698 328.789L303.931 320.174L304.432 321.702C306.502 328.005 303.071 334.792 296.768 336.862L270.535 345.477L270.034 343.949Z" fill="#0C0A09"/>
<path d="M270.921 346.653L298.909 337.462C304.243 335.71 309.986 338.614 311.737 343.947L312.816 347.231L284.828 356.422C279.494 358.173 273.751 355.27 272 349.936L270.921 346.653Z" fill="#0C0A09"/>
<path d="M279.017 371.304C277.106 365.486 280.274 359.221 286.092 357.31L313.202 348.408L313.992 350.813C315.903 356.631 312.735 362.897 306.917 364.807L279.807 373.71L279.017 371.304Z" fill="#0C0A09"/>
<path d="M449.856 383.188L159.961 460.865" stroke="black" stroke-width="2.52911"/>
<path d="M461.113 395.882L195.24 467.123" stroke="black" stroke-width="2.52911"/>
<path d="M477.313 410.742L206.738 483.243" stroke="black" stroke-width="2.52911"/>
<path d="M492.7 425.821L198.733 504.589" stroke="black" stroke-width="2.52911"/>
<path d="M475.782 447.373L420.933 377.847" stroke="black" stroke-width="2.52911"/>
<path d="M451.353 453.919L396.503 384.392" stroke="black" stroke-width="2.52911"/>
<path d="M416.154 446.331L372.074 390.938" stroke="black" stroke-width="2.52911"/>
<path d="M391.02 453.502L347.645 397.484" stroke="black" stroke-width="2.52911"/>
<path d="M366.998 459.939L323.216 404.03" stroke="black" stroke-width="2.52911"/>
<path d="M342.27 467.001L298.786 410.576" stroke="black" stroke-width="2.52911"/>
<path d="M329.206 486.648L274.356 417.122" stroke="black" stroke-width="2.52911"/>
<path d="M304.777 493.194L249.927 423.668" stroke="black" stroke-width="2.52911"/>
<path d="M280.348 499.739L225.498 430.213" stroke="black" stroke-width="2.52911"/>
<path d="M258.311 508.7L246.222 491.862" stroke="black" stroke-width="2.52911"/>
<path d="M231.03 477.025L202.362 436.8" stroke="black" stroke-width="2.52911"/>
<path d="M207.732 483.391L184.382 453.631" stroke="black" stroke-width="2.52911"/>
<path d="M234.047 516.51L206.25 481.421" stroke="black" stroke-width="2.52911"/>
<circle cx="3.05581" cy="3.05581" r="3.05581" transform="matrix(-0.965926 0.258819 0.258819 0.965926 437.137 377.25)" fill="black"/>
<rect x="0.128906" y="123.693" width="202.145" height="148.696" rx="10.9638" transform="rotate(-15 0.128906 123.693)" fill="#0C0A09"/>
<rect x="16.4292" y="134.223" width="176.791" height="116.49" transform="rotate(-15 16.4292 134.223)" fill="#CCFBF1"/>
<circle cx="99.8621" cy="104.063" r="4.11142" transform="rotate(-15 99.8621 104.063)" fill="#FAFAFA"/>
<g style="mix-blend-mode:multiply">
<circle cx="99.862" cy="104.063" r="2.05571" transform="rotate(-15 99.862 104.063)" fill="#FAFAFA"/>
</g>
<rect x="121.775" y="230.852" width="22.6128" height="10.2785" rx="1.37047" transform="rotate(-15 121.775 230.852)" fill="#FAFAFA"/>
<g style="mix-blend-mode:multiply">
<path d="M124.388 237.955L128.028 236.979C128.576 236.832 129.14 237.158 129.287 237.706C129.434 238.255 129.108 238.818 128.56 238.965L126.244 239.586C125.512 239.782 124.761 239.348 124.565 238.617L124.388 237.955Z" fill="#FAFAFA"/>
</g>
<g style="mix-blend-mode:multiply">
<path d="M124.388 237.955L123.412 234.314C123.265 233.766 123.591 233.203 124.139 233.056C124.687 232.909 125.251 233.234 125.398 233.782L126.373 237.423L124.388 237.955Z" fill="#FAFAFA"/>
</g>
<path d="M98.964 166.19C97.5916 161.068 100.631 155.803 105.753 154.431L127.07 148.719L127.403 149.961C128.775 155.083 125.736 160.347 120.614 161.72L99.2967 167.432L98.964 166.19Z" fill="#0C0A09"/>
<path d="M99.5527 168.387L122.296 162.293C126.63 161.132 131.085 163.704 132.246 168.038L132.961 170.706L110.218 176.8C105.884 177.962 101.429 175.39 100.268 171.056L99.5527 168.387Z" fill="#0C0A09"/>
<path d="M104.92 188.42C103.653 183.692 106.459 178.832 111.187 177.566L133.217 171.663L133.741 173.617C135.008 178.345 132.202 183.205 127.474 184.472L105.444 190.375L104.92 188.42Z" fill="#0C0A09"/>
</svg>
