<svg width="29" height="29" viewBox="0 0 29 29" fill="none" xmlns="http://www.w3.org/2000/svg">
<path d="M4.36197 16.5903C2.26257 13.5987 2.98582 9.47168 5.97739 7.37228L16.3184 0.115257V0.115257C18.4178 3.10683 17.6946 7.23388 14.703 9.33328L4.36197 16.5903V16.5903Z" fill="#1D2C7B"/>
<path d="M4.7074 17.083L15.0484 9.82598C18.04 7.72658 22.167 8.44983 24.2664 11.4414V11.4414L13.9254 18.6984C10.9338 20.7978 6.8068 20.0746 4.7074 17.083V17.083Z" fill="#1D2C7B"/>
<path d="M12.6555 28.4087C10.5561 25.4171 11.2794 21.29 14.271 19.1906L24.612 11.9336V11.9336C26.7114 14.9252 25.9881 19.0522 22.9966 21.1516L12.6555 28.4087V28.4087Z" fill="#1D2C7B"/>
</svg>
