<svg width="41" height="45" viewBox="0 0 41 45" fill="none" xmlns="http://www.w3.org/2000/svg">
<path d="M0.443359 12.6302C0.443359 5.83838 5.94922 0.33252 12.741 0.33252L41.0078 0.33252V1.97886C41.0078 8.77069 35.5019 14.2765 28.7101 14.2765L0.443359 14.2765L0.443359 12.6302Z" fill="#0C0A09"/>
<path d="M0.443359 15.5439L30.6021 15.5439C36.349 15.5439 41.0078 20.2028 41.0078 25.9497V29.488H10.8491C5.10217 29.488 0.443359 24.8292 0.443359 19.0822L0.443359 15.5439Z" fill="#0C0A09"/>
<path d="M0.443359 42.1076C0.443359 35.8382 5.52569 30.7559 11.7951 30.7559L41.0078 30.7559V33.3482C41.0078 39.6176 35.9255 44.6999 29.6561 44.6999H0.443359L0.443359 42.1076Z" fill="#0C0A09"/>
</svg>
