<svg width="112" height="51" viewBox="0 0 112 51" fill="none" xmlns="http://www.w3.org/2000/svg">
<path d="M42.1536 16.4751C40.0542 13.4835 40.7774 9.35645 43.769 7.25705L54.11 2.23967e-05V2.23967e-05C56.2094 2.9916 55.4862 7.11865 52.4946 9.21805L42.1536 16.4751V16.4751Z" fill="white"/>
<path d="M42.499 16.9678L52.84 9.71075C55.8316 7.61135 59.9587 8.3346 62.0581 11.3262V11.3262L51.717 18.5832C48.7255 20.6826 44.5984 19.9593 42.499 16.9678V16.9678Z" fill="white"/>
<path d="M50.4472 28.2934C48.3478 25.3019 49.071 21.1748 52.0626 19.0754L62.4036 11.8184V11.8184C64.503 14.81 63.7798 18.937 60.7882 21.0364L50.4472 28.2934V28.2934Z" fill="white"/>
<path d="M5.42807 50.3315C2.581 50.3315 0.425731 49.0543 0 46.3403L3.61872 45.3558C3.80497 45.8347 4.12427 46.766 5.34825 46.766C5.98685 46.766 6.51901 46.4733 6.51901 45.8879C6.51901 45.5952 6.35936 45.2227 5.64094 45.0099L3.61872 44.2648C1.33041 43.4666 0.345907 41.9499 0.345907 40.1672C0.345907 37.5063 2.76725 35.9631 5.56111 35.9631C8.27515 35.9631 10.2442 37.5063 10.6965 39.8213L7.10439 40.6993C6.8117 39.635 6.1465 39.4753 5.74737 39.4753C5.02895 39.4753 4.78948 39.9543 4.78948 40.247C4.78948 40.5663 4.97573 40.9388 5.77398 41.1517L7.66316 41.8435C8.99357 42.2692 11.0424 43.3069 11.0424 45.8879C11.0424 48.6818 8.64767 50.3315 5.42807 50.3315Z" fill="white"/>
<path d="M21.293 50.0654V42.2692C21.293 40.7259 20.3617 40.0341 19.3506 40.0341C18.2863 40.0341 17.3284 40.7259 17.3284 42.2692V50.0654H12.7252V36.2291H17.3284V37.8256C18.0734 36.7081 19.324 35.9631 21.0801 35.9631C22.65 35.9631 24.007 36.6017 24.8851 38.0119C25.7632 36.8145 27.2799 35.9631 29.3553 35.9631C32.3088 35.9631 34.4375 37.8256 34.4375 42.1362V50.0654H29.8342V42.2692C29.8342 40.7259 28.9296 40.0341 27.9185 40.0341C26.8009 40.0341 25.8696 40.7259 25.8696 42.2692V50.0654H21.293Z" fill="white"/>
<path d="M36.7869 50.0654V36.2291H41.3901V50.0654H36.7869ZM36.7869 35.1382V31.1736H41.3901V35.1382H36.7869Z" fill="white"/>
<path d="M49.9245 50.2251C47.1572 50.2251 45.1616 48.8946 45.1616 45.4356V39.8479H43.0596V36.2291H45.1616V32.6903H49.7648V36.2291H52.6917V39.8479H49.7648V44.7438C49.7648 45.3824 50.1373 46.1806 51.4411 46.1806C51.7604 46.1806 52.266 46.1274 52.7449 45.9677V49.4534C52.2128 50.0388 50.9622 50.2251 49.9245 50.2251Z" fill="white"/>
<path d="M54.5084 50.0654V31.1736H59.1116V37.8522C59.9098 36.7347 61.2136 35.9631 63.0496 35.9631C65.8435 35.9631 68.185 37.6926 68.185 41.9233V50.0654H63.5818V42.7215C63.5818 41.2847 62.8899 40.0341 61.3201 40.0341C59.7768 40.0341 59.1116 41.2847 59.1116 42.7215V50.0654H54.5084Z" fill="white"/>
<path d="M75.1447 50.3315C72.2976 50.3315 70.1423 49.0543 69.7166 46.3403L73.3353 45.3558C73.5216 45.8347 73.8409 46.766 75.0649 46.766C75.7035 46.766 76.2356 46.4733 76.2356 45.8879C76.2356 45.5952 76.076 45.2227 75.3576 45.0099L73.3353 44.2648C71.047 43.4666 70.0625 41.9499 70.0625 40.1672C70.0625 37.5063 72.4839 35.9631 75.2777 35.9631C77.9918 35.9631 79.9608 37.5063 80.4131 39.8213L76.821 40.6993C76.5283 39.635 75.8631 39.4753 75.464 39.4753C74.7456 39.4753 74.5061 39.9543 74.5061 40.247C74.5061 40.5663 74.6923 40.9388 75.4906 41.1517L77.3798 41.8435C78.7102 42.2692 80.759 43.3069 80.759 45.8879C80.759 48.6818 78.3643 50.3315 75.1447 50.3315Z" fill="white"/>
<path d="M89.1737 50.3315C85.5283 50.3315 81.7766 47.8569 81.7766 43.1473C81.7766 38.4376 85.5283 35.9631 89.1737 35.9631C92.7924 35.9631 96.5441 38.4376 96.5441 43.1473C96.5441 47.8569 92.7924 50.3315 89.1737 50.3315ZM86.3 43.1473C86.3 44.9832 87.5772 46.2072 89.1737 46.2072C90.7435 46.2072 92.0207 44.9832 92.0207 43.1473C92.0207 41.3113 90.7435 40.0873 89.1737 40.0873C87.5772 40.0873 86.3 41.3113 86.3 43.1473Z" fill="white"/>
<path d="M98.2144 50.0654V36.2291H102.818V37.8522C103.616 36.7347 104.92 35.9631 106.756 35.9631C109.55 35.9631 111.891 37.6926 111.891 41.9233V50.0654H107.288V42.7215C107.288 41.2847 106.596 40.0341 105.026 40.0341C103.483 40.0341 102.818 41.2847 102.818 42.7215V50.0654H98.2144Z" fill="white"/>
</svg>
