<svg width="326" height="381" viewBox="0 0 326 381" fill="none" xmlns="http://www.w3.org/2000/svg">
<path d="M270.667 28.1333C266.667 30.4 252 38.8 238 46.6667C224.133 54.5333 210.267 62.4 207.333 64C204.4 65.6 196.133 70.2667 189.067 74.2667L176.267 81.4667L170.8 78.1333C167.867 76.2667 164.8 74.6667 164.133 74.6667C162.4 74.6667 136.133 89.3333 135.333 90.8C134.667 91.7333 88.5333 65.8667 79.7333 59.8667C77.8667 58.4 76 57.3333 75.6 57.3333C75.2 57.3333 70.6667 54.9333 65.4667 52C60.4 49.0667 53.8667 45.4667 51.0667 43.8667C48.2667 42.2667 41.4667 38.4 35.8667 35.2C30.2667 32 25.3333 29.3333 24.9333 29.3333C24.4 29.3333 24 49.3333 24 73.7333V118.133L58.8 138C78 149.067 96.5333 159.6 99.8667 161.467C103.2 163.333 118.533 172.133 133.733 181.067C148.933 190 162 197.333 162.8 197.333C163.467 197.333 164 179.2 164 150.933V104.4L183.067 93.3333C199.867 83.4667 247.333 56 280.4 36.9333C286.8 33.3333 291.867 30.1333 291.733 30C290.133 28.5333 280.933 24 279.6 24C278.667 24 274.667 25.8667 270.667 28.1333Z" fill="#4C6FF7"/>
<path d="M290 40.5333C284.933 43.6 268.133 53.6 252.667 62.6667C237.333 71.7333 215.333 84.6667 204 91.3333C192.667 98 180.8 104.933 177.733 106.667L172 109.867V142.267C172 161.6 172.533 174.667 173.2 174.667C174 174.667 176.533 173.6 178.933 172.133C223.333 146.8 252 130.667 252.533 130.667C253.067 130.667 253.2 167.733 253.067 212.933L252.667 295.2L245.333 299.333C219.333 314.267 218.533 314.667 217.733 312.4C217.333 311.2 217.333 284.933 217.733 254C218.267 223.067 218.267 197.467 217.867 197.067C217.2 196.4 177.733 218.4 173.733 221.6C172.4 222.667 172 237.6 172 288.133C172 324 172.4 353.333 172.8 353.333C173.2 353.333 184.8 346.8 198.4 338.8C212.133 330.933 240.4 314.667 261.333 302.667C282.267 290.667 299.867 280.533 300.533 280C302.267 278.4 302.533 34.6667 300.8 34.8C300 34.8 295.2 37.3333 290 40.5333Z" fill="#363638"/>
<path d="M24 233.2V278.4L44.4 290.133C55.4667 296.533 66.5333 302.8 68.6667 304C76.1333 308.133 123.2 334.933 142 345.733C152.267 351.6 161.067 356.667 161.733 356.933C162.267 357.2 162.667 336.933 162.667 311.733V265.867L106.4 233.733C42.5333 197.2 26 188 24.8 188C24.4 188 24 208.4 24 233.2Z" fill="#4C6FF7"/>
</svg>
