<svg width="113" height="51" viewBox="0 0 113 51" fill="none" xmlns="http://www.w3.org/2000/svg">
<path d="M42.8147 16.4748C40.7153 13.4833 41.4386 9.35621 44.4302 7.2568L54.7712 -0.000221744V-0.000221744C56.8706 2.99135 56.1473 7.1184 53.1557 9.2178L42.8147 16.4748V16.4748Z" fill="#1D2C7B"/>
<path d="M43.1602 16.9675L53.5012 9.7105C56.4927 7.6111 60.6198 8.33435 62.7192 11.3259V11.3259L52.3782 18.583C49.3866 20.6824 45.2596 19.9591 43.1602 16.9675V16.9675Z" fill="#1D2C7B"/>
<path d="M51.1083 28.2932C49.0089 25.3016 49.7322 21.1746 52.7237 19.0752L63.0647 11.8181V11.8181C65.1641 14.8097 64.4409 18.9368 61.4493 21.0362L51.1083 28.2932V28.2932Z" fill="#1D2C7B"/>
<path d="M6.08927 50.3312C3.24219 50.3312 1.08693 49.0541 0.661194 46.34L4.27991 45.3555C4.46617 45.8345 4.78547 46.7657 6.00944 46.7657C6.64804 46.7657 7.1802 46.4731 7.1802 45.8877C7.1802 45.595 7.02056 45.2225 6.30213 45.0096L4.27991 44.2646C1.9916 43.4663 1.0071 41.9497 1.0071 40.1669C1.0071 37.5061 3.42845 35.9628 6.22231 35.9628C8.93635 35.9628 10.9054 37.5061 11.3577 39.821L7.76558 40.6991C7.47289 39.6347 6.80769 39.4751 6.40857 39.4751C5.69014 39.4751 5.45067 39.954 5.45067 40.2467C5.45067 40.566 5.63693 40.9386 6.43517 41.1514L8.32436 41.8432C9.65477 42.269 11.7036 43.3067 11.7036 45.8877C11.7036 48.6815 9.30886 50.3312 6.08927 50.3312Z" fill="#1D2C7B"/>
<path d="M21.9542 50.0652V42.269C21.9542 40.7257 21.0229 40.0339 20.0118 40.0339C18.9475 40.0339 17.9896 40.7257 17.9896 42.269V50.0652H13.3864V36.2289H17.9896V37.8254C18.7346 36.7078 19.9852 35.9628 21.7413 35.9628C23.3112 35.9628 24.6682 36.6014 25.5463 38.0116C26.4244 36.8143 27.941 35.9628 30.0165 35.9628C32.97 35.9628 35.0987 37.8254 35.0987 42.1359V50.0652H30.4954V42.269C30.4954 40.7257 29.5908 40.0339 28.5796 40.0339C27.4621 40.0339 26.5308 40.7257 26.5308 42.269V50.0652H21.9542Z" fill="#1D2C7B"/>
<path d="M37.4481 50.0652V36.2289H42.0513V50.0652H37.4481ZM37.4481 35.138V31.1733H42.0513V35.138H37.4481Z" fill="#1D2C7B"/>
<path d="M50.5857 50.2248C47.8184 50.2248 45.8228 48.8944 45.8228 45.4353V39.8476H43.7208V36.2289H45.8228V32.69H50.426V36.2289H53.3529V39.8476H50.426V44.7435C50.426 45.3821 50.7985 46.1804 52.1023 46.1804C52.4216 46.1804 52.9272 46.1272 53.4061 45.9675V49.4532C52.874 50.0386 51.6234 50.2248 50.5857 50.2248Z" fill="#1D2C7B"/>
<path d="M55.1696 50.0652V31.1733H59.7728V37.852C60.571 36.7345 61.8748 35.9628 63.7108 35.9628C66.5047 35.9628 68.8462 37.6923 68.8462 41.9231V50.0652H64.243V42.7213C64.243 41.2845 63.5511 40.0339 61.9813 40.0339C60.438 40.0339 59.7728 41.2845 59.7728 42.7213V50.0652H55.1696Z" fill="#1D2C7B"/>
<path d="M75.8059 50.3312C72.9588 50.3312 70.8035 49.0541 70.3778 46.34L73.9965 45.3555C74.1828 45.8345 74.5021 46.7657 75.7261 46.7657C76.3647 46.7657 76.8968 46.4731 76.8968 45.8877C76.8968 45.595 76.7372 45.2225 76.0187 45.0096L73.9965 44.2646C71.7082 43.4663 70.7237 41.9497 70.7237 40.1669C70.7237 37.5061 73.1451 35.9628 75.9389 35.9628C78.653 35.9628 80.622 37.5061 81.0743 39.821L77.4822 40.6991C77.1895 39.6347 76.5243 39.4751 76.1252 39.4751C75.4068 39.4751 75.1673 39.954 75.1673 40.2467C75.1673 40.566 75.3535 40.9386 76.1518 41.1514L78.041 41.8432C79.3714 42.269 81.4202 43.3067 81.4202 45.8877C81.4202 48.6815 79.0255 50.3312 75.8059 50.3312Z" fill="#1D2C7B"/>
<path d="M89.8348 50.3312C86.1895 50.3312 82.4378 47.8567 82.4378 43.147C82.4378 38.4374 86.1895 35.9628 89.8348 35.9628C93.4536 35.9628 97.2053 38.4374 97.2053 43.147C97.2053 47.8567 93.4536 50.3312 89.8348 50.3312ZM86.9612 43.147C86.9612 44.983 88.2384 46.207 89.8348 46.207C91.4047 46.207 92.6819 44.983 92.6819 43.147C92.6819 41.3111 91.4047 40.0871 89.8348 40.0871C88.2384 40.0871 86.9612 41.3111 86.9612 43.147Z" fill="#1D2C7B"/>
<path d="M98.8756 50.0652V36.2289H103.479V37.852C104.277 36.7345 105.581 35.9628 107.417 35.9628C110.211 35.9628 112.552 37.6923 112.552 41.9231V50.0652H107.949V42.7213C107.949 41.2845 107.257 40.0339 105.687 40.0339C104.144 40.0339 103.479 41.2845 103.479 42.7213V50.0652H98.8756Z" fill="#1D2C7B"/>
</svg>
